<?xml version="1.0" encoding="UTF-8"?>
<svg class="card" width="2.5in" height="3.5in" face="1B" preserveAspectRatio="none" version="1.1" viewBox="-120 -168 240 336" xmlns="http://www.w3.org/2000/svg" xmlns:xlink="http://www.w3.org/1999/xlink">
 <defs>
  <pattern id="pattern53" patternTransform="scale(.38962 5.2727)" xlink:href="#B1"/>
  <pattern id="B1" width="20" height="20" patternUnits="userSpaceOnUse">
   <path d="m0 0h10v10h-10zm10 10h10v10h-10z" fill="#00000a"/>
   <path d="m0-3.332 1.666 1.666-3.332 3.332 1.666 1.666 1.666-1.666-3.332-3.332z" fill="#fb0921" opacity=".75"/>
   <path d="m3.332 0-1.666 1.666-3.332-3.332-1.666 1.666 1.666 1.666 3.332-3.332z" fill="#fff" opacity=".75"/>
   <path d="m0 6.668 1.666 1.666-3.332 3.332 1.666 1.666 1.666-1.666-3.332-3.332z" fill="#fff" opacity=".75"/>
   <path d="m3.332 10-1.666 1.666-3.332-3.332-1.666 1.666 1.666 1.666 3.332-3.332z" fill="#fb0921" opacity=".75"/>
   <path d="m0 16.668 1.666 1.666-3.332 3.332 1.666 1.666 1.666-1.666-3.332-3.332z" fill="#fb0921" opacity=".75"/>
   <path d="m3.332 20-1.666 1.666-3.332-3.332-1.666 1.666 1.666 1.666 3.332-3.332z" fill="#fff" opacity=".75"/>
   <path d="m10-3.332 1.666 1.666-3.332 3.332 1.666 1.666 1.666-1.666-3.332-3.332z" fill="#fff" opacity=".75"/>
   <path d="m13.332 0-1.666 1.666-3.332-3.332-1.666 1.666 1.666 1.666 3.332-3.332z" fill="#fb0921" opacity=".75"/>
   <path d="m10 6.668 1.666 1.666-3.332 3.332 1.666 1.666 1.666-1.666-3.332-3.332z" fill="#fb0921" opacity=".75"/>
   <path d="m13.332 10-1.666 1.666-3.332-3.332-1.666 1.666 1.666 1.666 3.332-3.332z" fill="#fff" opacity=".75"/>
   <path d="m10 16.668 1.666 1.666-3.332 3.332 1.666 1.666 1.666-1.666-3.332-3.332z" fill="#fff" opacity=".75"/>
   <path d="m13.332 20-1.666 1.666-3.332-3.332-1.666 1.666 1.666 1.666 3.332-3.332z" fill="#fb0921" opacity=".75"/>
   <path d="m20-3.332 1.666 1.666-3.332 3.332 1.666 1.666 1.666-1.666-3.332-3.332z" fill="#fb0921" opacity=".75"/>
   <path d="m23.332 0-1.666 1.666-3.332-3.332-1.666 1.666 1.666 1.666 3.332-3.332z" fill="#fff" opacity=".75"/>
   <path d="m20 6.668 1.666 1.666-3.332 3.332 1.666 1.666 1.666-1.666-3.332-3.332z" fill="#fff" opacity=".75"/>
   <path d="m23.332 10-1.666 1.666-3.332-3.332-1.666 1.666 1.666 1.666 3.332-3.332z" fill="#fb0921" opacity=".75"/>
   <path d="m20 16.668 1.666 1.666-3.332 3.332 1.666 1.666 1.666-1.666-3.332-3.332z" fill="#fb0921" opacity=".75"/>
   <path d="m23.332 20-1.666 1.666-3.332-3.332-1.666 1.666 1.666 1.666 3.332-3.332z" fill="#fff" opacity=".75"/>
  </pattern>
 </defs>
 <rect x="-119.5" y="-167.5" width="239" height="335" rx="12" ry="12" fill="#800000" stroke="#000"/>
 <rect x="-100" y="-140" width="200" height="280" rx="44.194" ry="12" fill="url(#pattern53)"/>
</svg>
